<?xml version="1.0" encoding="UTF-8"?><svg xmlns="http://www.w3.org/2000/svg" xmlns:ev="http://www.w3.org/2001/xml-events" xmlns:v="http://schemas.microsoft.com/visio/2003/SVGExtensions/" xmlns:xlink="http://www.w3.org/1999/xlink" width="8.53958in" height="4.07363in" viewBox="0 0 614.85 293.301" xml:space="preserve" color-interpolation-filters="sRGB" class="st17" preserveAspectRatio="xMidYMid meet" zoomAndPan="magnify" version="1.1" contentScriptType="text/ecmascript" contentStyleType="text/css"><v:documentProperties v:langID="1033" v:metric="true" v:viewMarkup="false"/><style type="text/css" xml:space="preserve"><![CDATA[
		.st1 {fill:#ffffff;stroke:#000000;stroke-dasharray:3.5,2.5;stroke-width:0.5}
		.st2 {fill:#ffffff;stroke:#000000;stroke-width:0.5}
		.st3 {fill:#000000;font-family:Source Sans Pro;font-size:0.75em;font-weight:bold}
		.st4 {font-size:1em;font-weight:normal}
		.st5 {marker-end:url(#mrkr4-31);stroke:#000000;stroke-width:0.5}
		.st6 {fill:#000000;fill-opacity:1;stroke:#000000;stroke-opacity:1;stroke-width:0.16556291390728}
		.st7 {stroke:#000000;stroke-dasharray:0.01,3.75;stroke-width:0.75}
		.st8 {fill:none;stroke:none;stroke-width:0.5}
		.st9 {fill:#000000;font-family:Source Sans Pro;font-size:0.75em}
		.st10 {fill:#000000;font-family:Source Sans Pro;font-size:0.666664em}
		.st11 {marker-end:url(#mrkr5-67);stroke:#000000;stroke-width:0.5}
		.st12 {fill:#000000;fill-opacity:1;stroke:#000000;stroke-opacity:1;stroke-width:0.21739130434783}
		.st13 {font-size:1em}
		.st14 {stroke:#ff0000;stroke-width:0.5}
		.st15 {stroke:#000000;stroke-dasharray:0.01,2.5;stroke-width:0.5}
		.st16 {fill:#000000;font-family:Source Sans Pro;font-size:0.499992em}
		.st17 {fill:none;fill-rule:evenodd;font-size:12px;overflow:visible;stroke-linecap:square;stroke-miterlimit:3}
		]]></style><defs id="Markers"><g id="lend4"><path d="M 2 1 L 0 0 L 2 -1 L 2 1 " style="stroke:none"/></g><marker id="mrkr4-31" class="st6" v:arrowType="4" v:arrowSize="2" v:setback="12.08" refX="-12.08" orient="auto" markerUnits="strokeWidth" overflow="visible" preserveAspectRatio="xMidYMid meet"><use xlink:href="#lend4" transform="scale(-6.04,-6.04) " xlink:type="simple" xlink:show="embed" xlink:actuate="onLoad"/></marker><g id="lend5"><path d="M 2 1 L 0 0 L 1.98117 -0.993387 C 1.67173 -0.364515 1.67301 0.372641 1.98465 1.00043 " style="stroke:none"/></g><marker id="mrkr5-67" class="st12" v:arrowType="5" v:arrowSize="1" v:setback="8.05" refX="-8.05" orient="auto" markerUnits="strokeWidth" overflow="visible" preserveAspectRatio="xMidYMid meet"><use xlink:href="#lend5" transform="scale(-4.6,-4.6) " xlink:type="simple" xlink:show="embed" xlink:actuate="onLoad"/></marker></defs><g v:mID="0" v:index="1" v:groupContext="foregroundPage"><title>Page-1</title><v:pageProperties v:drawingScale="0.0393701" v:pageScale="0.0393701" v:drawingUnits="24" v:shadowOffsetX="8.50394" v:shadowOffsetY="-8.50394"/><v:layer v:name="Connector" v:index="0"/><g id="group1-1" transform="translate(0.5,-0.5)" v:mID="1" v:groupContext="group"><title>Sheet.1</title><g id="shape21-2" v:mID="21" v:groupContext="shape" transform="translate(243.238,0)"><title>Rectangle.23</title><v:userDefs>
					<v:ud v:nameU="visVersion" v:val="VT0(15):26"/>
				</v:userDefs><path d="M0 293.3 L154.23 293.3 L154.23 191.25 L0 191.25 L0 293.3 Z" class="st1"/></g><g id="shape12-4" v:mID="12" v:groupContext="shape" transform="translate(240.997,-170.343)"><title>Rectangle.12</title><v:userDefs>
					<v:ud v:nameU="visVersion" v:val="VT0(15):26"/>
				</v:userDefs><path d="M0 293.3 L154.23 293.3 L154.23 197.93 L0 197.93 L0 293.3 Z" class="st1"/></g><g id="shape2-6" v:mID="2" v:groupContext="shape" transform="translate(287.998,-173.924)"><title>Sheet.2</title><path d="M0 222.99 L0 293.3 L13.65 284.51 L13.65 235.07 L0 222.99 Z" class="st2"/></g><g id="shape3-8" v:mID="3" v:groupContext="shape" transform="translate(-6.39488E-14,-194.897)"><title>Rectangle</title><desc>TCPWM0 Group1 Counter 5 USER_PWM1</desc><v:userDefs>
					<v:ud v:nameU="visVersion" v:val="VT0(15):26"/>
				</v:userDefs><v:textBlock v:margins="rect(4,4,4,4)" v:tabSpace="42.5197"/><v:textRect cx="76.7312" cy="257.71" width="153.47" height="71.1823"/><rect x="0" y="222.119" width="153.462" height="71.1823" class="st2"/><text x="23.63" y="254.41" class="st3" v:langID="1033"><v:paragraph v:horizAlign="1"/><v:tabList/>TCPWM0 Group1 Counter 5<v:newlineChar/><tspan x="52.65" class="st4" dy="1.3em">USER_PWM1</tspan></text></g><g id="shape4-12" v:mID="4" v:groupContext="shape" transform="translate(460.388,-193.363)"><title>Rectangle.2</title><desc>TCPWM0 Group1 Counter 6 USER_PWM2</desc><v:userDefs>
					<v:ud v:nameU="visVersion" v:val="VT0(15):26"/>
				</v:userDefs><v:textBlock v:margins="rect(4,4,4,4)" v:tabSpace="42.5197"/><v:textRect cx="76.7312" cy="257.71" width="153.47" height="71.1823"/><rect x="0" y="222.119" width="153.462" height="71.1823" class="st2"/><text x="23.63" y="254.41" class="st3" v:langID="1033"><v:paragraph v:horizAlign="1"/><v:tabList/>TCPWM0 Group1 Counter 6<v:newlineChar/><tspan x="52.65" class="st4" dy="1.3em">USER_PWM2</tspan></text></g><g id="shape5-16" v:mID="5" v:groupContext="shape" transform="translate(460.388,-107.424)"><title>Rectangle.3</title><desc>TCPWM0 Group2 Counter 0 USER_TIMER</desc><v:userDefs>
					<v:ud v:nameU="visVersion" v:val="VT0(15):26"/>
				</v:userDefs><v:textBlock v:margins="rect(4,4,4,4)" v:tabSpace="42.5197"/><v:textRect cx="76.7312" cy="257.71" width="153.47" height="71.1823"/><rect x="0" y="222.119" width="153.462" height="71.1823" class="st2"/><text x="23.63" y="254.41" class="st3" v:langID="1033"><v:paragraph v:horizAlign="1"/><v:tabList/>TCPWM0 Group2 Counter 0<v:newlineChar/><tspan x="52.44" class="st4" dy="1.3em">USER_TIMER</tspan></text></g><g id="shape6-20" v:mID="6" v:groupContext="shape" transform="translate(460.264,-15.9155)"><title>Rectangle.4</title><desc>HPPASS SAR ADC Group0</desc><v:userDefs>
					<v:ud v:nameU="visVersion" v:val="VT0(15):26"/>
				</v:userDefs><v:textBlock v:margins="rect(4,4,4,4)" v:tabSpace="42.5197"/><v:textRect cx="76.7312" cy="257.71" width="153.47" height="71.1823"/><rect x="0" y="222.119" width="153.462" height="71.1823" class="st2"/><text x="60.75" y="254.41" class="st3" v:langID="1033"><v:paragraph v:horizAlign="1"/><v:tabList/>HPPASS<v:newlineChar/><tspan x="45.78" class="st4" dy="1.3em">SAR ADC Group0</tspan></text></g><g id="shape7-24" v:mID="7" v:groupContext="shape" transform="translate(282.481,-184.13)"><title>Sheet.7</title><path d="M0 222.99 L0 293.3 L13.65 284.51 L13.65 235.07 L0 222.99 Z" class="st2"/></g><g id="shape8-26" v:mID="8" v:groupContext="shape" transform="translate(153.664,-230.476)"><title>Sheet.8</title><path d="M0 293.3 L122.69 293.3" class="st5"/></g><g id="shape9-32" v:mID="9" v:groupContext="shape" transform="translate(251.886,-249.861)"><title>Sheet.9</title><path d="M0 293.3 L25.03 293.3" class="st5"/></g><g id="shape10-37" v:mID="10" v:groupContext="shape" transform="translate(251.658,-192.454)"><title>Sheet.10</title><path d="M0 293.3 L25.03 293.3" class="st5"/></g><g id="shape11-42" v:mID="11" v:groupContext="shape" transform="translate(-32.713,90.685) rotate(-90)"><title>Sheet.11</title><path d="M0 293.3 L26.09 293.3" class="st7"/></g><g id="shape13-45" v:mID="13" v:groupContext="shape" transform="translate(296.476,-217.351)"><title>Sheet.13</title><path d="M0 293.3 L158.58 293.3" class="st5"/></g><g id="shape14-50" v:mID="14" v:groupContext="shape" transform="translate(243.065,-265.292)"><title>Rectangle.15</title><desc>Trigger multiplexer group 10</desc><v:textBlock v:margins="rect(4,4,4,4)" v:tabSpace="42.5197"/><v:textRect cx="70.6735" cy="279.797" width="141.35" height="27.0094"/><rect x="0" y="266.292" width="141.347" height="27.0094" class="st8"/><text x="17.24" y="282.8" class="st9" v:langID="1033"><v:paragraph v:horizAlign="1"/><v:tabList/>Trigger multiplexer group 10</text></g><g id="shape15-53" v:mID="15" v:groupContext="shape" transform="translate(142.895,-230.14)"><title>Rectangle.16</title><desc>TR_OUT1</desc><v:textBlock v:margins="rect(4,4,4,4)" v:tabSpace="42.5197"/><v:textRect cx="36.9219" cy="285.945" width="73.85" height="14.7122"/><rect x="0" y="278.589" width="73.8437" height="14.7122" class="st8"/><text x="19.16" y="288.65" class="st9" v:langID="1033"><v:paragraph v:horizAlign="1"/><v:tabList/>TR_OUT1</text></g><g id="shape16-56" v:mID="16" v:groupContext="shape" transform="translate(287.742,-216.894)"><title>Rectangle.17</title><desc>TCPWM_ALL_CNT_TR_IN13</desc><v:textBlock v:margins="rect(4,4,4,4)" v:tabSpace="42.5197"/><v:textRect cx="60.8157" cy="285.945" width="121.64" height="14.7122"/><rect x="0" y="278.589" width="121.631" height="14.7122" class="st8"/><text x="14.96" y="288.35" class="st10" v:langID="1033"><v:paragraph v:horizAlign="1"/><v:tabList/>TCPWM_ALL_CNT_TR_IN13</text></g><g id="shape17-59" v:mID="17" v:groupContext="shape" transform="translate(420.709,-217.856)"><title>Rectangle.19</title><desc>Start</desc><v:textBlock v:margins="rect(4,4,4,4)" v:tabSpace="42.5197"/><v:textRect cx="25.1165" cy="285.945" width="50.24" height="14.7122"/><rect x="0" y="278.589" width="50.233" height="14.7122" class="st8"/><text x="16.87" y="288.35" class="st10" v:langID="1033"><v:paragraph v:horizAlign="1"/><v:tabList/>Start</text></g><g id="shape18-62" v:mID="18" v:groupContext="shape" transform="translate(243.068,-51.8407)"><title>Sheet.18</title><path d="M0 293.3 L150.29 293.3" class="st11"/></g><g id="shape19-68" v:mID="19" v:groupContext="shape" v:layerMember="0" transform="translate(410.512,-217.149)"><title>Dynamic connector</title><path d="M0 293.3 L0 367.92 L43.84 367.92" class="st5"/></g><g id="shape20-73" v:mID="20" v:groupContext="shape" transform="translate(421.255,-142.464)"><title>Rectangle.22</title><desc>Start</desc><v:textBlock v:margins="rect(4,4,4,4)" v:tabSpace="42.5197"/><v:textRect cx="25.1165" cy="285.945" width="50.24" height="14.7122"/><rect x="0" y="278.589" width="50.233" height="14.7122" class="st8"/><text x="16.87" y="288.35" class="st10" v:langID="1033"><v:paragraph v:horizAlign="1"/><v:tabList/>Start</text></g><g id="shape22-76" v:mID="22" v:groupContext="shape" transform="translate(245.54,-101.929)"><title>Rectangle.24</title><desc>Trigger one-to-one group 2</desc><v:textBlock v:margins="rect(4,4,4,4)" v:tabSpace="42.5197"/><v:textRect cx="70.6735" cy="279.797" width="141.35" height="27.0094"/><rect x="0" y="266.292" width="141.347" height="27.0094" class="st8"/><text x="20.09" y="282.8" class="st9" v:langID="1033"><v:paragraph v:horizAlign="1"/><v:tabList/>Trigger one-to-one group 2</text></g><g id="shape23-79" v:mID="23" v:groupContext="shape" transform="translate(15.8447,274.341) rotate(-90)"><title>Sheet.23</title><path d="M0 293.3 L29.41 293.3" class="st7"/></g><g id="shape24-82" v:mID="24" v:groupContext="shape" transform="translate(398.666,-51.806)"><title>Sheet.24</title><path d="M0 293.3 L55.68 293.3" class="st5"/></g><g id="shape25-87" v:mID="25" v:groupContext="shape" transform="translate(417.849,-52.1099)"><title>Rectangle.29</title><desc>TR_IN2</desc><v:textBlock v:margins="rect(4,4,4,4)" v:tabSpace="42.5197"/><v:textRect cx="25.1165" cy="285.945" width="50.24" height="14.7122"/><rect x="0" y="278.589" width="50.233" height="14.7122" class="st8"/><text x="13.07" y="288.35" class="st10" v:langID="1033"><v:paragraph v:horizAlign="1"/><v:tabList/>TR_IN2</text></g><g id="shape26-90" v:mID="26" v:groupContext="shape" transform="translate(327.898,-55.758)"><title>Rectangle.30</title><desc>HPPASS: TR_B_IN[2]</desc><v:textBlock v:margins="rect(4,4,4,4)" v:tabSpace="42.5197"/><v:textRect cx="39.6916" cy="285.945" width="79.39" height="14.7122"/><rect x="0" y="278.589" width="79.3832" height="14.7122" class="st8"/><text x="25.11" y="283.55" class="st10" v:langID="1033"><v:paragraph v:horizAlign="1"/><v:tabList/>HPPASS:<v:newlineChar/><tspan x="20.87" class="st13" dy="1.2em">TR_B_IN[2]</tspan></text></g><g id="shape27-94" v:mID="27" v:groupContext="shape" v:layerMember="0" transform="translate(197.078,-230.14)"><title>Dynamic connector.31</title><path d="M0 293.3 L0 471.65 L40.12 471.65" class="st5"/></g><g id="shape28-99" v:mID="28" v:groupContext="shape" transform="translate(270.35,-91.3102)"><title>Sheet.28</title><path d="M0 293.3 L105.62 293.3" class="st11"/></g><g id="shape29-104" v:mID="29" v:groupContext="shape" transform="translate(240.169,-50.8984)"><title>Rectangle.35</title><desc>TCPWM0: GRP1_CNT5_TR_OUT1</desc><v:textBlock v:margins="rect(4,4,4,4)" v:tabSpace="42.5197"/><v:textRect cx="44.632" cy="281.806" width="89.27" height="22.9911"/><rect x="0" y="270.31" width="89.264" height="22.9911" class="st8"/><text x="28.9" y="279.41" class="st10" v:langID="1033"><v:paragraph v:horizAlign="1"/><v:tabList/>TCPWM0:<v:newlineChar/><tspan x="6.84" class="st13" dy="1.2em">GRP1_CNT5_TR_OUT1</tspan></text></g><g id="shape30-108" v:mID="30" v:groupContext="shape" transform="translate(270.861,-82.3582)"><title>Sheet.30</title><path d="M0 293.3 L105.62 293.3" class="st11"/></g><g id="shape31-113" v:mID="31" v:groupContext="shape" transform="translate(269.582,-14.5789)"><title>Sheet.31</title><path d="M0 293.3 L105.62 293.3" class="st11"/></g><g id="shape32-118" v:mID="32" v:groupContext="shape" transform="translate(90.3497,284.587) rotate(-135.43)"><title>Sheet.32</title><path d="M0 293.3 L18.08 293.3" class="st14"/></g><g id="shape33-121" v:mID="33" v:groupContext="shape" transform="translate(140.209,359.11) rotate(-147.653)"><title>Sheet.33</title><path d="M0 293.3 L10.07 293.3" class="st15"/></g><g id="shape34-124" v:mID="34" v:groupContext="shape" transform="translate(260.307,-88.1398)"><title>Rectangle.43</title><desc>0</desc><v:textBlock v:margins="rect(4,4,4,4)" v:tabSpace="42.5197"/><v:textRect cx="5.51181" cy="290.168" width="11.03" height="6.26669"/><rect x="0" y="287.035" width="11.0236" height="6.26669" class="st8"/><text x="4.02" y="291.97" class="st16" v:langID="1033"><v:paragraph v:horizAlign="1"/><v:tabList/>0</text></g><g id="shape35-127" v:mID="35" v:groupContext="shape" transform="translate(260.559,-79.4469)"><title>Rectangle.45</title><desc>1</desc><v:textBlock v:margins="rect(4,4,4,4)" v:tabSpace="42.5197"/><v:textRect cx="5.51181" cy="290.168" width="11.03" height="6.26669"/><rect x="0" y="287.035" width="11.0236" height="6.26669" class="st8"/><text x="4.02" y="291.97" class="st16" v:langID="1033"><v:paragraph v:horizAlign="1"/><v:tabList/>1</text></g><g id="shape36-130" v:mID="36" v:groupContext="shape" transform="translate(260.559,-11.6674)"><title>Rectangle.46</title><desc>7</desc><v:textBlock v:margins="rect(4,4,4,4)" v:tabSpace="42.5197"/><v:textRect cx="5.51181" cy="290.168" width="11.03" height="6.26669"/><rect x="0" y="287.035" width="11.0236" height="6.26669" class="st8"/><text x="4.02" y="291.97" class="st16" v:langID="1033"><v:paragraph v:horizAlign="1"/><v:tabList/>7</text></g><g id="shape37-133" v:mID="37" v:groupContext="shape" transform="translate(260.559,-45.6831)"><title>Rectangle.47</title><desc>2</desc><v:textBlock v:margins="rect(4,4,4,4)" v:tabSpace="42.5197"/><v:textRect cx="5.51181" cy="290.168" width="11.03" height="6.26669"/><rect x="0" y="287.035" width="11.0236" height="6.26669" class="st8"/><text x="4.02" y="291.97" class="st16" v:langID="1033"><v:paragraph v:horizAlign="1"/><v:tabList/>2</text></g><g id="shape38-136" v:mID="38" v:groupContext="shape" transform="translate(263.324,-250.109)"><title>Rectangle.48</title><desc>0</desc><v:textBlock v:margins="rect(4,4,4,4)" v:tabSpace="42.5197"/><v:textRect cx="5.51181" cy="290.168" width="11.03" height="6.26669"/><rect x="0" y="287.035" width="11.0236" height="6.26669" class="st8"/><text x="4.02" y="291.97" class="st16" v:langID="1033"><v:paragraph v:horizAlign="1"/><v:tabList/>0</text></g><g id="shape39-139" v:mID="39" v:groupContext="shape" transform="translate(260.37,-230.714)"><title>Rectangle.49</title><desc>42</desc><v:textBlock v:margins="rect(4,4,4,4)" v:tabSpace="42.5197"/><v:textRect cx="7.23746" cy="290.168" width="14.48" height="6.26669"/><rect x="0" y="287.035" width="14.4749" height="6.26669" class="st8"/><text x="4.26" y="291.97" class="st16" v:langID="1033"><v:paragraph v:horizAlign="1"/><v:tabList/>42</text></g><g id="shape40-142" v:mID="40" v:groupContext="shape" transform="translate(-32.9616,56.6196) rotate(-90)"><title>Sheet.40</title><path d="M0 293.3 L9.18 293.3" class="st7"/></g><g id="shape41-145" v:mID="41" v:groupContext="shape" transform="translate(258.102,-193.914)"><title>Rectangle.51</title><desc>131</desc><v:textBlock v:margins="rect(4,4,4,4)" v:tabSpace="42.5197"/><v:textRect cx="8.97804" cy="290.168" width="17.96" height="6.26669"/><rect x="0" y="287.035" width="17.9561" height="6.26669" class="st8"/><text x="4.51" y="291.97" class="st16" v:langID="1033"><v:paragraph v:horizAlign="1"/><v:tabList/>131</text></g></g></g></svg>